<?xml version="1.0" encoding="utf-8"?>
<!-- Generator: Adobe Illustrator 21.1.0, SVG Export Plug-In . SVG Version: 6.00 Build 0)  -->
<svg version="1.1" id="Calque_1" xmlns="http://www.w3.org/2000/svg" xmlns:xlink="http://www.w3.org/1999/xlink" x="0px" y="0px"
	 viewBox="0 0 214 58" style="enable-background:new 0 0 214 58;" xml:space="preserve">
<style type="text/css">
	.st0{fill:#E0E0E0;}
	.st1{fill:#353F91;}
</style>
<g>
	<g>
		<g>
			<g>
				<g>
					<g>
						<path class="st0" d="M31.8,22.5H0l7.1-11.7l4.4,6.1L11.6,7L16,0.3l7.8,13.2l3.8,1.3L31.8,22.5z"/>
					</g>
				</g>
			</g>
			<polygon class="st1" points="30.7,25.6 26.6,37.5 24.4,38.8 20.6,52.5 18,50.4 15.3,57.7 9.8,43.4 7.7,44.2 4.8,32.5 1.1,25.6 
							"/>
		</g>
	</g>
	<path class="st1" d="M58.4,39.4V26.6H48.1v12.8h-6V8.8h6v12.5h10.4V8.8h6v30.6H58.4z"/>
	<path class="st1" d="M71,13.2V8.6h5.7v4.6H71z M71.1,39.4V17h5.6v22.4H71.1z"/>
	<path class="st1" d="M95.3,39.4v-2.1c-1.5,1.7-3.2,2.4-5.5,2.4c-2.2,0-4.3-0.8-5.5-2C82,35.4,82,31.5,82,28.2c0-3.4,0-7.2,2.3-9.4
		c1.2-1.2,3.3-2,5.5-2c2.3,0,4,0.6,5.5,2.2V8.8h5.6v30.6H95.3z M91.4,21.8c-3.4,0-3.8,2.8-3.8,6.4c0,3.7,0.4,6.4,3.8,6.4
		c3.4,0,3.8-2.8,3.8-6.4C95.2,24.5,94.7,21.8,91.4,21.8z"/>
	<path class="st1" d="M111.4,30c0,2.9,1.8,5,4.9,5c2.4,0,3.7-0.7,5.1-2.1l3.4,3.3c-2.3,2.3-4.5,3.5-8.5,3.5
		c-5.3,0-10.4-2.4-10.4-11.5c0-7.3,4-11.4,9.8-11.4c6.2,0,9.8,4.6,9.8,10.7V30H111.4z M119.4,23.7c-0.6-1.3-1.8-2.3-3.7-2.3
		c-1.9,0-3.1,1-3.7,2.3c-0.3,0.8-0.5,1.4-0.5,2.4h8.5C119.9,25.1,119.8,24.5,119.4,23.7z"/>
	<path class="st0" d="M147,37.6c-1.2,1.2-3.3,2-5.5,2c-2.4,0-4-0.6-5.6-2.4v2.1h-5.4V8.8h5.6V19c1.5-1.6,3.1-2.2,5.4-2.2
		c2.2,0,4.2,0.8,5.5,2c2.2,2.2,2.3,6.1,2.3,9.4C149.3,31.5,149.3,35.4,147,37.6z M140,21.8c-3.4,0-3.8,2.8-3.8,6.4
		c0,3.7,0.4,6.4,3.8,6.4c3.4,0,3.8-2.8,3.8-6.4C143.7,24.5,143.3,21.8,140,21.8z"/>
	<path class="st0" d="M159,30c0,2.9,1.8,5,4.9,5c2.4,0,3.7-0.7,5.1-2.1l3.4,3.3c-2.3,2.3-4.5,3.5-8.5,3.5c-5.3,0-10.4-2.4-10.4-11.5
		c0-7.3,4-11.4,9.8-11.4c6.2,0,9.8,4.6,9.8,10.7V30H159z M167,23.7c-0.6-1.3-1.8-2.3-3.7-2.3c-1.9,0-3.1,1-3.7,2.3
		c-0.3,0.8-0.5,1.4-0.5,2.4h8.5C167.5,25.1,167.4,24.5,167,23.7z"/>
	<path class="st0" d="M190.4,23.1c-0.9-0.9-1.6-1.3-3-1.3c-1.7,0-3.6,1.3-3.6,4.1v13.5h-5.6V17h5.5v2.1c1.1-1.3,3.2-2.4,5.6-2.4
		c2.2,0,3.7,0.6,5.3,2.1L190.4,23.1z"/>
	<path class="st0" d="M204.2,47.9c-3.4,0-5.8-0.7-8.1-2.9l3.5-3.5c1.2,1.2,2.5,1.7,4.4,1.7c3.4,0,4.5-2.4,4.5-4.6v-2.3
		c-1.5,1.6-3.1,2.2-5.3,2.2c-2.2,0-4.1-0.7-5.3-2c-2.1-2.1-2.3-5-2.3-8.9c0-3.9,0.2-6.7,2.3-8.9c1.2-1.2,3.2-2,5.4-2
		c2.4,0,3.9,0.6,5.5,2.4V17h5.4v21.6C214,44,210.2,47.9,204.2,47.9z M204.7,21.8c-3.3,0-3.7,2.8-3.7,5.8c0,3,0.3,5.8,3.7,5.8
		c3.3,0,3.7-2.9,3.7-5.8C208.4,24.6,208,21.8,204.7,21.8z"/>
</g>
</svg>
