<?xml version="1.0" encoding="utf-8"?>
<!-- Generator: Adobe Illustrator 21.1.0, SVG Export Plug-In . SVG Version: 6.00 Build 0)  -->
<svg version="1.1" id="Calque_1" xmlns="http://www.w3.org/2000/svg" xmlns:xlink="http://www.w3.org/1999/xlink" x="0px" y="0px"
	 viewBox="0 0 86 21" style="enable-background:new 0 0 86 21;" xml:space="preserve">
<style type="text/css">
	.st0{enable-background:new    ;}
	.st1{fill:#2D35A5;}
	.st2{fill:#999999;}
</style>
<g class="st0">
	<path class="st1" d="M11.9,16.5V11H7.4v5.5H4.9V3.4h2.6v5.4h4.4V3.4h2.6v13.1H11.9z"/>
	<path class="st1" d="M17.3,5.2v-2h2.5v2H17.3z M17.3,16.5V6.9h2.4v9.6H17.3z"/>
	<path class="st1" d="M27.7,16.5v-0.9c-0.7,0.7-1.4,1-2.4,1c-0.9,0-1.8-0.3-2.4-0.9c-1-1-1-2.6-1-4.1c0-1.4,0-3.1,1-4
		c0.5-0.5,1.4-0.9,2.3-0.9c1,0,1.7,0.3,2.3,1V3.4h2.4v13.1H27.7z M26,8.9c-1.4,0-1.6,1.2-1.6,2.7c0,1.6,0.2,2.8,1.6,2.8
		s1.6-1.2,1.6-2.8C27.7,10.1,27.5,8.9,26,8.9z"/>
	<path class="st1" d="M34.6,12.4c0,1.2,0.8,2.1,2.1,2.1c1.1,0,1.6-0.3,2.2-0.9l1.5,1.4c-1,1-1.9,1.5-3.7,1.5c-2.3,0-4.4-1-4.4-4.9
		c0-3.1,1.7-4.9,4.2-4.9c2.7,0,4.2,2,4.2,4.6v1.1H34.6z M38.1,9.8c-0.3-0.6-0.8-1-1.6-1s-1.3,0.4-1.6,1c-0.1,0.4-0.2,0.6-0.2,1h3.7
		C38.3,10.4,38.2,10.1,38.1,9.8z"/>
</g>
<g class="st0">
	<path class="st2" d="M49.5,15.4c-0.6,0.6-1.6,1.2-3,1.2c-1.4,0-2.4-0.6-3-1.2c-0.9-0.9-1.1-2-1.1-3.7c0-1.7,0.2-2.8,1.1-3.7
		c0.6-0.6,1.5-1.2,3-1.2c1.4,0,2.4,0.6,3,1.2c0.9,0.9,1.1,2,1.1,3.7C50.6,13.4,50.4,14.5,49.5,15.4z M47.7,9.4
		c-0.3-0.3-0.6-0.4-1.1-0.4c-0.5,0-0.8,0.1-1.1,0.4c-0.5,0.5-0.6,1.3-0.6,2.3c0,1,0.1,1.8,0.6,2.3c0.3,0.3,0.6,0.4,1.1,0.4
		c0.5,0,0.8-0.1,1.1-0.4c0.5-0.5,0.6-1.3,0.6-2.3C48.2,10.7,48.2,9.9,47.7,9.4z"/>
	<path class="st2" d="M55.6,9v7.5h-2.4V9h-1V7.2h1V6c0-1.4,0.8-2.7,2.8-2.7h1.4v2h-0.9c-0.6,0-0.8,0.3-0.8,0.9v1.1h1.8V9H55.6z"/>
	<path class="st2" d="M61.9,9v7.5h-2.4V9h-1V7.2h1V6c0-1.4,0.8-2.7,2.8-2.7h1.4v2h-0.9c-0.6,0-0.8,0.3-0.8,0.9v1.1h1.8V9H61.9z"/>
	<path class="st2" d="M67.1,12.4c0,1.2,0.8,2.1,2.1,2.1c1.1,0,1.6-0.3,2.2-0.9l1.5,1.4c-1,1-1.9,1.5-3.7,1.5c-2.3,0-4.4-1-4.4-4.9
		c0-3.1,1.7-4.9,4.2-4.9c2.7,0,4.2,2,4.2,4.6v1.1H67.1z M70.5,9.8c-0.3-0.6-0.8-1-1.6-1s-1.3,0.4-1.6,1c-0.1,0.4-0.2,0.6-0.2,1h3.7
		C70.8,10.4,70.7,10.1,70.5,9.8z"/>
	<path class="st2" d="M80.6,9.5c-0.4-0.4-0.7-0.6-1.3-0.6c-0.7,0-1.5,0.6-1.5,1.8v5.8h-2.4V6.9h2.3v0.9c0.5-0.6,1.4-1,2.4-1
		c0.9,0,1.6,0.2,2.3,0.9L80.6,9.5z"/>
</g>
</svg>
