<svg xmlns="http://www.w3.org/2000/svg" viewBox="0 0 244 244"><defs><style>.cls-1{fill:#d1d2d3;}.cls-2{fill:#fff;}.cls-2,.cls-3{fill-rule:evenodd;}.cls-3{fill:#353f91;}</style></defs><title>special page icons</title><g id="Background"><path class="cls-1" d="M185.2,146H58.8L87.17,99.5l17.37,24.21.39-39.15L122.21,58l30.88,52.35,15.29,5.28Z"/></g><g id="Objects"><path class="cls-2" d="M41.92,137.07c0,1.53,1.88,2.76,4.23,2.76s4.23-1.23,4.23-2.76,1.88-2.82,4.17-2.82,4.23,1.23,4.23,2.82,1.88,2.76,4.23,2.76,4.23-1.23,4.23-2.76,1.88-2.82,4.23-2.82,4.23,1.23,4.23,2.82,1.88,2.76,4.17,2.76,4.23-1.23,4.23-2.76,1.88-2.82,4.23-2.82,4.23,1.23,4.23,2.82,1.88,2.76,4.23,2.76,4.23-1.23,4.23-2.76,1.88-2.82,4.17-2.82,4.23,1.23,4.23,2.82,1.88,2.76,4.23,2.76,4.23-1.23,4.23-2.76,1.88-2.82,4.23-2.82,4.23,1.23,4.23,2.82,1.88,2.76,4.17,2.76,4.23-1.23,4.23-2.76,1.88-2.82,4.23-2.82,4.23,1.23,4.23,2.82,1.88,2.76,4.23,2.76,4.23-1.23,4.23-2.76,1.88-2.82,4.17-2.82,4.23,1.23,4.23,2.82,1.88,2.76,4.23,2.76,4.23-1.23,4.23-2.76,1.88-2.82,4.23-2.82,4.23,1.23,4.23,2.82,1.88,2.76,4.17,2.76,4.23-1.23,4.23-2.76,1.88-2.82,4.23-2.82,4.23,1.23,4.23,2.82,1.88,2.76,4.23,2.76,4.23-1.23,4.23-2.76,1.88-2.82,4.17-2.82,4.23,1.23,4.23,2.82,1.88,2.76,4.23,2.76V141h15.43v73.47H214.75v6.75H29.31v-6.75H14.81V141h14.5v-1.17c2.29,0,4.17-1.23,4.17-2.76s1.88-2.82,4.23-2.82,4.23,1.23,4.23,2.82Z"/><path class="cls-3" d="M43.16,137.07a1.22,1.22,0,0,0,.65.94,4.11,4.11,0,0,0,2.35.65,3.91,3.91,0,0,0,2.29-.65c.41-.29.7-.59.7-.94a3.63,3.63,0,0,1,1.76-3,6.9,6.9,0,0,1,7.34,0,3.63,3.63,0,0,1,1.76,3c0,.35.29.65.7.94a3.91,3.91,0,0,0,2.29.65,4.11,4.11,0,0,0,2.35-.65,1.22,1.22,0,0,0,.65-.94,3.56,3.56,0,0,1,1.82-3,6.79,6.79,0,0,1,7.28,0,3.5,3.5,0,0,1,1.76,3c0,.35.29.65.7.94a4,4,0,0,0,2.29.65,4.11,4.11,0,0,0,2.35-.65c.41-.29.7-.59.7-.94a3.5,3.5,0,0,1,1.76-3,6.79,6.79,0,0,1,7.28,0,3.56,3.56,0,0,1,1.82,3,1.22,1.22,0,0,0,.65.94,4.11,4.11,0,0,0,2.35.65A3.91,3.91,0,0,0,99,138c.41-.29.7-.59.7-.94a3.63,3.63,0,0,1,1.76-3,6.9,6.9,0,0,1,7.34,0,3.63,3.63,0,0,1,1.76,3c0,.35.23.65.7.94a3.91,3.91,0,0,0,2.29.65,4.11,4.11,0,0,0,2.35-.65,1.22,1.22,0,0,0,.65-.94,3.56,3.56,0,0,1,1.82-3,6.79,6.79,0,0,1,7.28,0,3.5,3.5,0,0,1,1.76,3c0,.35.29.65.7.94a4,4,0,0,0,2.29.65,4.11,4.11,0,0,0,2.35-.65c.41-.29.7-.59.7-.94a3.5,3.5,0,0,1,1.76-3,6.79,6.79,0,0,1,7.28,0,3.56,3.56,0,0,1,1.82,3,1.22,1.22,0,0,0,.65.94,4.11,4.11,0,0,0,2.35.65,3.91,3.91,0,0,0,2.29-.65c.41-.29.7-.59.7-.94a3.63,3.63,0,0,1,1.76-3,6.9,6.9,0,0,1,7.34,0,3.63,3.63,0,0,1,1.76,3c0,.35.23.65.7.94a3.79,3.79,0,0,0,2.29.65,4.11,4.11,0,0,0,2.35-.65,1.22,1.22,0,0,0,.65-.94,3.56,3.56,0,0,1,1.82-3,6.79,6.79,0,0,1,7.28,0,3.5,3.5,0,0,1,1.76,3c0,.35.29.65.7.94a4,4,0,0,0,2.29.65,4.11,4.11,0,0,0,2.35-.65c.41-.29.7-.59.7-.94a3.5,3.5,0,0,1,1.76-3,6.79,6.79,0,0,1,7.28,0,3.56,3.56,0,0,1,1.82,3,1.22,1.22,0,0,0,.65.94,4.11,4.11,0,0,0,2.35.65,3.91,3.91,0,0,0,2.29-.65c.41-.29.7-.59.7-.94a3.63,3.63,0,0,1,1.76-3A6.64,6.64,0,0,1,206.3,133a6.84,6.84,0,0,1,3.7,1.06,3.63,3.63,0,0,1,1.76,3c0,.35.23.65.7.94a3.79,3.79,0,0,0,2.29.65H216V141h-2.46a7.36,7.36,0,0,1-2.41-.94,3.65,3.65,0,0,1-1.76-3,1.4,1.4,0,0,0-.7-1,4.62,4.62,0,0,0-2.35-.59,4.56,4.56,0,0,0-2.29.59,1.4,1.4,0,0,0-.7,1,3.65,3.65,0,0,1-1.76,3,7.2,7.2,0,0,1-2.46.94h-2.41a6.87,6.87,0,0,1-2.41-.94,3.72,3.72,0,0,1-1.82-3,1.31,1.31,0,0,0-.65-1,4.62,4.62,0,0,0-2.35-.59,4.24,4.24,0,0,0-2.29.59,1.25,1.25,0,0,0-.7,1,3.8,3.8,0,0,1-1.76,3,7.7,7.7,0,0,1-2.46.94h-2.41a7.7,7.7,0,0,1-2.46-.94,3.8,3.8,0,0,1-1.76-3,1.4,1.4,0,0,0-.7-1,4.4,4.4,0,0,0-2.29-.59,4.62,4.62,0,0,0-2.35.59,1.31,1.31,0,0,0-.65,1,3.72,3.72,0,0,1-1.82,3,6.87,6.87,0,0,1-2.41.94h-2.46a7.36,7.36,0,0,1-2.41-.94,3.65,3.65,0,0,1-1.76-3,1.4,1.4,0,0,0-.7-1,4.62,4.62,0,0,0-2.35-.59,4.56,4.56,0,0,0-2.29.59,1.4,1.4,0,0,0-.7,1,3.65,3.65,0,0,1-1.76,3,7.2,7.2,0,0,1-2.46.94h-2.41a6.87,6.87,0,0,1-2.41-.94,3.72,3.72,0,0,1-1.82-3,1.31,1.31,0,0,0-.65-1,4.62,4.62,0,0,0-2.35-.59,4.24,4.24,0,0,0-2.29.59,1.25,1.25,0,0,0-.7,1,3.8,3.8,0,0,1-1.76,3,7.7,7.7,0,0,1-2.46.94h-2.41a7.7,7.7,0,0,1-2.46-.94,3.8,3.8,0,0,1-1.76-3,1.4,1.4,0,0,0-.7-1,4.4,4.4,0,0,0-2.29-.59,4.62,4.62,0,0,0-2.35.59,1.31,1.31,0,0,0-.65,1,3.72,3.72,0,0,1-1.82,3,6.87,6.87,0,0,1-2.41.94h-2.46a7.36,7.36,0,0,1-2.41-.94,3.65,3.65,0,0,1-1.76-3,1.4,1.4,0,0,0-.7-1,4.62,4.62,0,0,0-2.35-.59,4.56,4.56,0,0,0-2.29.59,1.4,1.4,0,0,0-.7,1,3.65,3.65,0,0,1-1.76,3A7.36,7.36,0,0,1,98,141H95.5a6.87,6.87,0,0,1-2.41-.94,3.72,3.72,0,0,1-1.82-3,1.31,1.31,0,0,0-.65-1,4.62,4.62,0,0,0-2.35-.59,4.4,4.4,0,0,0-2.29.59,1.25,1.25,0,0,0-.7,1,3.8,3.8,0,0,1-1.76,3,7.7,7.7,0,0,1-2.46.94H78.66a7.7,7.7,0,0,1-2.46-.94,3.8,3.8,0,0,1-1.76-3,1.4,1.4,0,0,0-.7-1,4.4,4.4,0,0,0-2.29-.59,4.62,4.62,0,0,0-2.35.59,1.31,1.31,0,0,0-.65,1,3.72,3.72,0,0,1-1.82,3,6.87,6.87,0,0,1-2.41.94H61.76a7.36,7.36,0,0,1-2.41-.94,3.65,3.65,0,0,1-1.76-3,1.4,1.4,0,0,0-.7-1,4.62,4.62,0,0,0-2.35-.59,4.56,4.56,0,0,0-2.29.59,1.4,1.4,0,0,0-.7,1,3.65,3.65,0,0,1-1.76,3,7.36,7.36,0,0,1-2.41.94H44.92a6.87,6.87,0,0,1-2.41-.94,3.72,3.72,0,0,1-1.82-3,1.31,1.31,0,0,0-.65-1,4.62,4.62,0,0,0-2.35-.59,4.4,4.4,0,0,0-2.29.59,1.4,1.4,0,0,0-.7,1,3.8,3.8,0,0,1-1.76,3,7.7,7.7,0,0,1-2.46.94H28.07v-2.35h1.23a4,4,0,0,0,2.29-.65c.41-.29.7-.59.7-.94a3.5,3.5,0,0,1,1.76-3,6.79,6.79,0,0,1,7.28,0,3.56,3.56,0,0,1,1.82,3Z"/><path class="cls-3" d="M28.72,138.66H10.17A1.18,1.18,0,0,0,9,139.83H9A1.18,1.18,0,0,0,10.17,141H28.72a1.17,1.17,0,0,0,1.12-1.17h0a1.17,1.17,0,0,0-1.12-1.17Z"/><path class="cls-3" d="M233.83,138.66H215.34a1.18,1.18,0,0,0-1.17,1.17h0a1.18,1.18,0,0,0,1.17,1.17h18.49a1.18,1.18,0,0,0,1.17-1.17h0a1.18,1.18,0,0,0-1.17-1.17Z"/><path class="cls-3" d="M217,153.21h-8.1a1.18,1.18,0,0,0-1.17,1.17h0a1.13,1.13,0,0,0,1.17,1.11H217a1.13,1.13,0,0,0,1.17-1.11h0a1.18,1.18,0,0,0-1.17-1.17Z"/><path class="cls-3" d="M176.31,153.21H140a1.17,1.17,0,0,0-1.12,1.17h0A1.11,1.11,0,0,0,140,155.5h36.27a1.13,1.13,0,0,0,1.17-1.11h0a1.18,1.18,0,0,0-1.17-1.17Z"/><path class="cls-3" d="M125.84,153.21h-17a1.18,1.18,0,0,0-1.17,1.17h0a1.13,1.13,0,0,0,1.17,1.11h17a1.13,1.13,0,0,0,1.17-1.11h0a1.18,1.18,0,0,0-1.17-1.17Z"/><path class="cls-3" d="M50.08,153.21H48.2A1.18,1.18,0,0,0,47,154.38h0a1.13,1.13,0,0,0,1.17,1.11h1.88a1.13,1.13,0,0,0,1.17-1.11h0a1.18,1.18,0,0,0-1.17-1.17Z"/><path class="cls-3" d="M65.4,160.78H58.06A1.18,1.18,0,0,0,56.89,162h0a1.18,1.18,0,0,0,1.17,1.17H65.4A1.18,1.18,0,0,0,66.57,162h0a1.18,1.18,0,0,0-1.17-1.17Z"/><path class="cls-3" d="M225.38,164.18h-1.53a1.18,1.18,0,0,0-1.17,1.17h0a1.18,1.18,0,0,0,1.17,1.17h1.53a1.17,1.17,0,0,0,1.12-1.17h0a1.17,1.17,0,0,0-1.12-1.17Z"/><path class="cls-3" d="M147.5,166.71h-17a1.18,1.18,0,0,0-1.17,1.17h0a1.18,1.18,0,0,0,1.17,1.17h17a1.18,1.18,0,0,0,1.17-1.17h0a1.18,1.18,0,0,0-1.17-1.17Z"/><path class="cls-3" d="M23.5,164.18H22a1.18,1.18,0,0,0-1.17,1.17h0A1.18,1.18,0,0,0,22,166.53H23.5a1.17,1.17,0,0,0,1.11-1.17h0a1.17,1.17,0,0,0-1.11-1.17Z"/></g></svg>