<svg xmlns="http://www.w3.org/2000/svg" viewBox="0 0 244 244"><defs><style>.cls-1{fill:#ededed;}.cls-2{fill:#d1d2d3;}.cls-3{fill:#353f91;}</style></defs><title>special page icons</title><g id="Objects"><path class="cls-1" d="M117,58.52a9,9,0,0,0,11.36,8.65,11.58,11.58,0,0,0,18.83,8.35,11.58,11.58,0,0,0,18.67,1.4,14.35,14.35,0,0,0,17.54-4.51,9,9,0,1,0,0-17.05,14.33,14.33,0,0,0-11.54-5.82l-.65,0a11.59,11.59,0,0,0-15.8-6.68,14.35,14.35,0,0,0-27.06,6.66c0,.11,0,.22,0,.33A9,9,0,0,0,117,58.52Z"/><path class="cls-1" d="M84.73,83.77A9,9,0,0,0,70.85,78,15.49,15.49,0,0,0,42,83.18a9,9,0,0,0-10.23,5.07A6.71,6.71,0,1,0,28.82,101H81a9,9,0,0,0,3.76-17.23Z"/><path class="cls-1" d="M66.16,172a14.73,14.73,0,0,1,14.69,13.67A8,8,0,0,1,79,201.45c-.23,0-.46,0-.69,0a10.43,10.43,0,0,1-11.64,2.05,10.43,10.43,0,0,1-15.42-2,10.1,10.1,0,0,1-7.73-3.8,6.71,6.71,0,1,1,0-12.65,10.11,10.11,0,0,1,7.9-3.8,10.23,10.23,0,0,1,1.05.05A14.73,14.73,0,0,1,66.16,172Z"/><circle class="cls-1" cx="26.46" cy="191.33" r="4.08"/><circle class="cls-1" cx="15.11" cy="191.33" r="2.27" transform="translate(-130.86 66.72) rotate(-45)"/><path class="cls-2" d="M168,125,72.84,114l20-32.7,12.21,17,.27-27.53,12.15-18.67,21.71,36.81,10.75,3.72Z"/><path class="cls-3" d="M116.16,218a1.74,1.74,0,0,1-1.62-1.11L99.81,178.72l-4.1,1.59a1.74,1.74,0,0,1-2.31-1.19l-8.16-32.52-10.2-19A1.74,1.74,0,0,1,76.56,125H159.4a1.74,1.74,0,0,1,1.64,2.32l-11.72,33.14a1.73,1.73,0,0,1-.73.9l-5.48,3.36-10.32,37.64a1.74,1.74,0,0,1-2.79.88l-5.41-4.5-6.8,18.12a1.74,1.74,0,0,1-1.62,1.13Z"/><path class="cls-1" d="M206.23,173.1A7.28,7.28,0,0,0,195,168.45a12.5,12.5,0,0,0-23.3,4.17,7.28,7.28,0,0,0-8.25,4.09A5.42,5.42,0,1,0,161.1,187H203.2a7.28,7.28,0,0,0,3-13.9Z"/><path class="cls-1" d="M175.8,123.78a15.71,15.71,0,0,0-1.9.12,21.53,21.53,0,0,0-24.42-11.35A30.73,30.73,0,0,0,88,113a21.53,21.53,0,0,0-28.24,20.46c0,.39,0,.78,0,1.17h0a10.18,10.18,0,1,0,0,20.37h116a15.61,15.61,0,0,0,0-31.22Z"/></g></svg>