<svg id="Background" xmlns="http://www.w3.org/2000/svg" xmlns:xlink="http://www.w3.org/1999/xlink" viewBox="0 0 244 244"><defs><style>.cls-1{fill:none;}.cls-2{opacity:0.6;}.cls-3{clip-path:url(#clip-path);}.cls-4{fill:#9a9999;}.cls-5{fill:#353f91;}.cls-6{fill:#ebf0f1;}</style><clipPath id="clip-path"><rect class="cls-1" x="52" y="117.63" width="140" height="74.37"/></clipPath></defs><title>special page icons</title><g class="cls-2"><g class="cls-3"><path class="cls-4" d="M181.06,117.62h-2.19a2.18,2.18,0,0,0-1.55.64l-38.92,38.92-8.3-8.3a2.18,2.18,0,0,0-3.09,0l-25.8,25.8-16-16a2.18,2.18,0,0,0-3.09,0L52.64,188.27a2.18,2.18,0,0,0-.64,1.55V192h4.37v-1.28l27.34-27.34,16,16a2.19,2.19,0,0,0,3.09,0l25.8-25.8,8.3,8.3a2.19,2.19,0,0,0,3.09,0L179.78,122H192v-4.37h-6.56"/></g></g><path class="cls-5" d="M55.78,147.57c5.3-5.6,16.32-2.08,22.9,0a25.81,25.81,0,0,0,7.83,1.31,18.5,18.5,0,0,0,7.06-1.39v13.88a2.19,2.19,0,0,0,2.19,2.19h10.94a2.19,2.19,0,0,0,2.19-2.19V140.12a6.77,6.77,0,0,1,2.74-2c.44-.22.89-.42,1.34-.61a19.29,19.29,0,0,0,3.76-2,8.3,8.3,0,0,0,2.91-4.76h4.56v13.13a2.19,2.19,0,0,0,2.19,2.19h10.94a2.19,2.19,0,0,0,2.19-2.19v-17.5a11,11,0,0,0-10.94-10.94H115.44v-6.56h10.94a11,11,0,0,0,10.94-10.94V78.25a2.19,2.19,0,0,0-2.19-2.19h-8.75a2.19,2.19,0,0,0-2.19,2.19v17.5h-10.7a13.12,13.12,0,1,0-23-.49c-7.39,2.18-14,7.08-19.35,14.33A64.17,64.17,0,0,0,65.39,120c-.45.95-.9,1.89-1.35,2.82-1,2.08-2,4.36-2.93,6.56-2.34,5.51-4.77,11.2-8.5,15.15h0a2.19,2.19,0,1,0,3.18,3m37.79-28.32L91,116.7l2.55-2.55ZM114.11,132a15.88,15.88,0,0,1-2.94,1.56c-.5.22-1,.44-1.48.68-.27.13-.54.28-.82.43v-3.91H115a3.36,3.36,0,0,1-.91,1.25m14.45-34.06V80.44h4.37v17.5a6.57,6.57,0,0,1-6.56,6.56H113.25a2.19,2.19,0,0,0-2.19,2.19v10.94a2.19,2.19,0,0,0,2.19,2.19h15.31a6.57,6.57,0,0,1,6.56,6.56v15.31h-6.56V128.56a2.19,2.19,0,0,0-2.19-2.19H106.69a2.19,2.19,0,0,0-2.19,2.19v30.63H97.94V108.88a2.19,2.19,0,0,0-3.73-1.55l-7.83,7.83a2.18,2.18,0,0,0,0,3.09l6.11,6.11L89,127.83l-6.48-6.48a6.57,6.57,0,0,1,0-9.28L94.65,99.95a13,13,0,0,0,7.49,2.37h.17v13.13h4.37v-14a13.22,13.22,0,0,0,2.69-1.36m-7.24-19.69a8.75,8.75,0,1,1-8.75,8.75,8.76,8.76,0,0,1,8.75-8.75m-37,50.68c1-2.24,1.86-4.36,2.83-6.34.47-.94.92-1.9,1.38-2.87a61,61,0,0,1,5.36-9.74,35.65,35.65,0,0,1,12.46-10.93L79.44,109a11,11,0,0,0,0,15.47l8,8a2.18,2.18,0,0,0,3.09,0l3-3v13.17c-4.6,2.7-9.85,2-13.56.78-5.15-1.65-12.66-4-19.19-3,1.62-3,3-6.16,4.31-9.29"/><path class="cls-6" d="M185.44,117.62V54.19a2.19,2.19,0,0,0-3-2l-21.88,8.75a2.19,2.19,0,0,0,0,4.06l20.5,8.2v44.46"/></svg>